<svg xmlns="http://www.w3.org/2000/svg" viewBox="0 0 100 100"><rect width="100" height="100" fill="url(#a)" rx="20"/><path d="M52.61 83.99c4.05 0 7.29-1.98 9.54-6.03 1.89-3.33 2.79-7.11 2.79-11.52 0-5.22-.9-8.91-2.34-13.32-1.62-3.69-4.59-7.74-8.82-11.97-7.65-7.47-11.7-12.51-12.33-14.94-.54-2.43 1.35-3.6 3.42-3.6 1.62 0 3.78.72 6.48 2.07 3.15 1.71 5.04 2.52 5.67 2.52 1.53 0 2.61-.72 3.06-2.25.45-2.52-.81-3.96-2.61-4.32-4.86-1.17-8.37-1.71-10.62-1.71-5.85 0-9.54 3.24-7.92 9.63.81 3.51 3.78 8.55 8.82 15.12-3.24.81-6.03 2.61-8.46 5.31-3.51 3.87-5.31 8.64-5.22 14.31s1.8 10.53 5.4 14.58 8.01 6.12 13.14 6.12m3.96-27.36c1.53 3.42 2.34 7.29 2.34 11.52-.09 8.73-2.34 13.14-6.75 13.14-3.42 0-6.21-1.62-8.46-4.86-2.07-2.97-3.06-7.29-3.06-12.78 0-9.63 3.06-15.48 9.09-17.55l.27.27c2.88 3.69 5.04 7.11 6.57 10.26" aria-label="δ" style="font-size:90px;font-family:NewComputerModernMath;text-anchor:middle;fill:#fff"/><linearGradient id="a" x1="0" x2="1" y1="1" y2="0"><stop offset="0%" stop-color="#4DB6AC"/><stop offset="100%" stop-color="#1976D2"/></linearGradient></svg>